<svg width="182" height="30" viewBox="0 0 182 30" fill="none" xmlns="http://www.w3.org/2000/svg">
<path d="M-7.15256e-07 23.2727V0H15.4091V4.05682H4.92045V9.60227H14.3864V13.6591H4.92045V23.2727H-7.15256e-07ZM64.3097 23.5568C62.9839 23.5568 61.7831 23.2159 60.7074 22.5341C59.6392 21.8447 58.7907 20.8333 58.1619 19.5C57.5407 18.1591 57.2301 16.5152 57.2301 14.5682C57.2301 12.5682 57.5521 10.9053 58.196 9.57955C58.84 8.24621 59.696 7.25 60.7642 6.59091C61.84 5.92424 63.018 5.59091 64.2983 5.59091C65.2756 5.59091 66.09 5.75758 66.7415 6.09091C67.4006 6.41667 67.9309 6.82576 68.3324 7.31818C68.7415 7.80303 69.0521 8.2803 69.2642 8.75H69.4119V0H74.2415V23.2727H69.4688V20.4773H69.2642C69.0369 20.9621 68.715 21.4432 68.2983 21.9205C67.8892 22.3902 67.3551 22.7803 66.696 23.0909C66.0445 23.4015 65.2491 23.5568 64.3097 23.5568ZM65.8438 19.7045C66.6241 19.7045 67.2831 19.4924 67.821 19.0682C68.3665 18.6364 68.7831 18.0341 69.071 17.2614C69.3665 16.4886 69.5142 15.5833 69.5142 14.5455C69.5142 13.5076 69.3703 12.6061 69.0824 11.8409C68.7945 11.0758 68.3778 10.4848 67.8324 10.0682C67.2869 9.65152 66.6241 9.44318 65.8438 9.44318C65.0483 9.44318 64.3778 9.65909 63.8324 10.0909C63.2869 10.5227 62.8741 11.1212 62.5937 11.8864C62.3134 12.6515 62.1733 13.5379 62.1733 14.5455C62.1733 15.5606 62.3134 16.4583 62.5937 17.2386C62.8816 18.0114 63.2945 18.6174 63.8324 19.0568C64.3778 19.4886 65.0483 19.7045 65.8438 19.7045ZM81.2102 29.8182C80.5966 29.8182 80.0208 29.7689 79.483 29.6705C78.9527 29.5795 78.5133 29.4621 78.1648 29.3182L79.2557 25.7045C79.8239 25.8788 80.3352 25.9735 80.7898 25.9886C81.2519 26.0038 81.6496 25.8977 81.983 25.6705C82.3239 25.4432 82.6004 25.0568 82.8125 24.5114L83.0966 23.7727L76.8352 5.81818H81.9261L85.5398 18.6364H85.7216L89.3693 5.81818H94.4943L87.7102 25.1591C87.3845 26.0985 86.9413 26.9167 86.3807 27.6136C85.8277 28.3182 85.1269 28.8598 84.2784 29.2386C83.4299 29.625 82.4072 29.8182 81.2102 29.8182ZM104.219 23.2727V20.3523L115.832 4.05682H104.196V0H122.014V2.92045L110.389 19.2159H122.037V23.2727H104.219ZM150.187 13.1818V23.2727H145.347V5.81818H149.96V8.89773H150.165C150.551 7.88258 151.199 7.07955 152.108 6.48864C153.017 5.89015 154.119 5.59091 155.415 5.59091C156.627 5.59091 157.684 5.85606 158.585 6.38636C159.487 6.91667 160.188 7.67424 160.688 8.65909C161.188 9.63636 161.438 10.803 161.438 12.1591V23.2727H156.597V13.0227C156.604 11.9545 156.331 11.1212 155.778 10.5227C155.225 9.91667 154.464 9.61364 153.494 9.61364C152.843 9.61364 152.267 9.75379 151.767 10.0341C151.275 10.3144 150.888 10.7235 150.608 11.2614C150.335 11.7917 150.195 12.4318 150.187 13.1818ZM173.207 23.6136C171.412 23.6136 169.866 23.25 168.571 22.5227C167.283 21.7879 166.291 20.75 165.594 19.4091C164.897 18.0606 164.548 16.4659 164.548 14.625C164.548 12.8295 164.897 11.2538 165.594 9.89773C166.291 8.54167 167.272 7.48485 168.537 6.72727C169.81 5.9697 171.302 5.59091 173.014 5.59091C174.166 5.59091 175.238 5.77652 176.23 6.14773C177.23 6.51136 178.101 7.06061 178.844 7.79545C179.594 8.5303 180.177 9.45455 180.594 10.5682C181.01 11.6742 181.219 12.9697 181.219 14.4545V15.7841H166.48V12.7841H176.662C176.662 12.0871 176.51 11.4697 176.207 10.9318C175.904 10.3939 175.484 9.97348 174.946 9.67045C174.416 9.35985 173.798 9.20455 173.094 9.20455C172.359 9.20455 171.707 9.375 171.139 9.71591C170.579 10.0492 170.139 10.5 169.821 11.0682C169.503 11.6288 169.34 12.2538 169.332 12.9432V15.7955C169.332 16.6591 169.491 17.4053 169.81 18.0341C170.135 18.6629 170.594 19.1477 171.185 19.4886C171.776 19.8295 172.476 20 173.287 20C173.825 20 174.317 19.9242 174.764 19.7727C175.211 19.6212 175.594 19.3939 175.912 19.0909C176.23 18.7879 176.473 18.4167 176.639 17.9773L181.116 18.2727C180.889 19.3485 180.423 20.2879 179.719 21.0909C179.022 21.8864 178.12 22.5076 177.014 22.9545C175.916 23.3939 174.647 23.6136 173.207 23.6136Z" fill="white"/>
<path d="M26.5142 23.6136C24.7491 23.6136 23.2225 23.2386 21.9347 22.4886C20.6544 21.7311 19.6657 20.678 18.9687 19.3295C18.2718 17.9735 17.9233 16.4015 17.9233 14.6136C17.9233 12.8106 18.2718 11.2348 18.9687 9.88636C19.6657 8.5303 20.6544 7.47727 21.9347 6.72727C23.2225 5.9697 24.7491 5.59091 26.5142 5.59091C28.2794 5.59091 29.8021 5.9697 31.0824 6.72727C32.3703 7.47727 33.3627 8.5303 34.0597 9.88636C34.7566 11.2348 35.1051 12.8106 35.1051 14.6136C35.1051 16.4015 34.7566 17.9735 34.0597 19.3295C33.3627 20.678 32.3703 21.7311 31.0824 22.4886C29.8021 23.2386 28.2794 23.6136 26.5142 23.6136ZM26.5369 19.8636C27.34 19.8636 28.0104 19.6364 28.5483 19.1818C29.0862 18.7197 29.4915 18.0909 29.7642 17.2955C30.0445 16.5 30.1847 15.5947 30.1847 14.5795C30.1847 13.5644 30.0445 12.6591 29.7642 11.8636C29.4915 11.0682 29.0862 10.4394 28.5483 9.97727C28.0104 9.51515 27.34 9.28409 26.5369 9.28409C25.7263 9.28409 25.0445 9.51515 24.4915 9.97727C23.946 10.4394 23.5331 11.0682 23.2528 11.8636C22.9801 12.6591 22.8437 13.5644 22.8437 14.5795C22.8437 15.5947 22.9801 16.5 23.2528 17.2955C23.5331 18.0909 23.946 18.7197 24.4915 19.1818C25.0445 19.6364 25.7263 19.8636 26.5369 19.8636ZM46.1392 23.6136C44.3741 23.6136 42.8475 23.2386 41.5597 22.4886C40.2794 21.7311 39.2907 20.678 38.5937 19.3295C37.8968 17.9735 37.5483 16.4015 37.5483 14.6136C37.5483 12.8106 37.8968 11.2348 38.5937 9.88636C39.2907 8.5303 40.2794 7.47727 41.5597 6.72727C42.8475 5.9697 44.3741 5.59091 46.1392 5.59091C47.9044 5.59091 49.4271 5.9697 50.7074 6.72727C51.9953 7.47727 52.9877 8.5303 53.6847 9.88636C54.3816 11.2348 54.7301 12.8106 54.7301 14.6136C54.7301 16.4015 54.3816 17.9735 53.6847 19.3295C52.9877 20.678 51.9953 21.7311 50.7074 22.4886C49.4271 23.2386 47.9044 23.6136 46.1392 23.6136ZM46.1619 19.8636C46.965 19.8636 47.6354 19.6364 48.1733 19.1818C48.7112 18.7197 49.1165 18.0909 49.3892 17.2955C49.6695 16.5 49.8097 15.5947 49.8097 14.5795C49.8097 13.5644 49.6695 12.6591 49.3892 11.8636C49.1165 11.0682 48.7112 10.4394 48.1733 9.97727C47.6354 9.51515 46.965 9.28409 46.1619 9.28409C45.3513 9.28409 44.6695 9.51515 44.1165 9.97727C43.571 10.4394 43.1581 11.0682 42.8778 11.8636C42.6051 12.6591 42.4687 13.5644 42.4687 14.5795C42.4687 15.5947 42.6051 16.5 42.8778 17.2955C43.1581 18.0909 43.571 18.7197 44.1165 19.1818C44.6695 19.6364 45.3513 19.8636 46.1619 19.8636Z" fill="#FF0A0A"/>
<path d="M133.608 23.6136C131.843 23.6136 130.316 23.2386 129.028 22.4886C127.748 21.7311 126.759 20.678 126.062 19.3295C125.366 17.9735 125.017 16.4015 125.017 14.6136C125.017 12.8106 125.366 11.2348 126.062 9.88636C126.759 8.5303 127.748 7.47727 129.028 6.72727C130.316 5.9697 131.843 5.59091 133.608 5.59091C135.373 5.59091 136.896 5.9697 138.176 6.72727C139.464 7.47727 140.456 8.5303 141.153 9.88636C141.85 11.2348 142.199 12.8106 142.199 14.6136C142.199 16.4015 141.85 17.9735 141.153 19.3295C140.456 20.678 139.464 21.7311 138.176 22.4886C136.896 23.2386 135.373 23.6136 133.608 23.6136ZM133.631 19.8636C134.434 19.8636 135.104 19.6364 135.642 19.1818C136.18 18.7197 136.585 18.0909 136.858 17.2955C137.138 16.5 137.278 15.5947 137.278 14.5795C137.278 13.5644 137.138 12.6591 136.858 11.8636C136.585 11.0682 136.18 10.4394 135.642 9.97727C135.104 9.51515 134.434 9.28409 133.631 9.28409C132.82 9.28409 132.138 9.51515 131.585 9.97727C131.04 10.4394 130.627 11.0682 130.347 11.8636C130.074 12.6591 129.937 13.5644 129.937 14.5795C129.937 15.5947 130.074 16.5 130.347 17.2955C130.627 18.0909 131.04 18.7197 131.585 19.1818C132.138 19.6364 132.82 19.8636 133.631 19.8636Z" fill="#FF0909"/>
</svg>
